M48
;Layer_Color=9474304
;FILE_FORMAT=2:5
INCH,LZ
;TYPE=PLATED
T01F00S00C0.03150
T02F00S00C0.03543
T03F00S00C0.03937
T04F00S00C0.07874
T05F00S00C0.13197
T06F00S00C0.14709
%
T01
X0291705Y013
X0317295
T02
X02155Y01265
Y01365
Y01465
X03545Y0147
Y0137
X04145
Y0147
Y0157
Y0167
Y0177
Y0187
Y0197
Y0207
Y0217
Y0227
Y0237
Y0247
Y0257
Y0267
Y0277
X03545
Y0267
Y0257
Y0247
Y0237
Y0227
Y0217
Y0207
Y0197
Y0187
Y0177
Y0167
Y0157
X02155Y01565
Y01665
Y01765
Y01865
Y01965
X02945Y02575
Y02675
Y02775
T03
X04705Y0211
X04805
X04905
X05005
T04
X0442193Y0122417
X0528807
Y0209032
X0442193
T05
X05055Y02615
X0492114Y0280398
T06
X0480697Y02615
M30
