%TF.GenerationSoftware,Altium Limited,DefaultClient, ()*%
G04 Layer_Color=65535*
G04 Board_Origin=0|0*
%FSLAX26Y26*%
%MOIN*%
%TF.SameCoordinates,9EDE7A22-6934-4161-8DBF-1DF2AFD9FED2*%
%TF.FilePolarity,Positive*%
%TF.FileFunction,Legend,Top*%
%TF.Part,Single*%
G01*
G75*
%TA.AperFunction,NonConductor*%
%ADD20C,0.005000*%
%ADD21C,0.007874*%
%ADD22C,0.003937*%
%ADD23C,0.010440*%
%ADD24C,0.010443*%
%ADD25C,0.010000*%
D20*
X3281220Y1300000D02*
G03*
X3281220Y1300000I-236220J0D01*
G01*
X4343190Y2169056D02*
X5366812D01*
Y1145434D02*
Y2169056D01*
X5130590Y1145434D02*
X5366812D01*
X5130590D02*
Y1224174D01*
X4579410D02*
X5130590D01*
X4579410Y1145434D02*
Y1224174D01*
X4343190Y1145434D02*
X4579410D01*
X4343190D02*
Y2169056D01*
X3490670Y2920394D02*
X4199330D01*
Y1219606D02*
Y2920394D01*
X3490670Y1219606D02*
X4199330D01*
X3490670D02*
Y2920394D01*
D21*
X4701457Y2188740D02*
G03*
X4701457Y2188740I-3937J0D01*
G01*
X3465079Y2770000D02*
G03*
X3465079Y2770000I-3937J0D01*
G01*
X4653425Y2607126D02*
G03*
X4653425Y2611063I0J1968D01*
G01*
D02*
G03*
X4653425Y2607126I0J-1968D01*
G01*
D02*
G03*
X4653425Y2611063I0J1968D01*
G01*
X2105000Y1215000D02*
Y2015000D01*
X2088334D02*
X2105000Y1998334D01*
X1921668Y1248334D02*
X2055000D01*
X1905000Y1265000D02*
X1921668Y1248334D01*
X1905000Y1265000D02*
X1921668Y1281668D01*
X2055000D01*
X1921668Y1348334D02*
X2055000D01*
X1905000Y1365000D02*
X1921668Y1348334D01*
X1905000Y1365000D02*
X1921668Y1381668D01*
X2055000D01*
X1921668Y1448334D02*
X2055000D01*
X1905000Y1465000D02*
X1921668Y1448334D01*
X1905000Y1465000D02*
X1921668Y1481668D01*
X2055000D01*
X1921668Y1548334D02*
X2055000D01*
X1905000Y1565000D02*
X1921668Y1548334D01*
X1905000Y1565000D02*
X1921668Y1581668D01*
X2055000D01*
X1921668Y1648334D02*
X2055000D01*
X1905000Y1665000D02*
X1921668Y1648334D01*
X1905000Y1665000D02*
X1921668Y1681666D01*
X2055000D01*
X1921668Y1748334D02*
X2055000D01*
X1905000Y1765000D02*
X1921668Y1748334D01*
X1905000Y1765000D02*
X1921668Y1781666D01*
X2055000D01*
X1921668Y1848334D02*
X2055000D01*
X1905000Y1865000D02*
X1921668Y1848334D01*
X1905000Y1865000D02*
X1921668Y1881666D01*
X2055000D01*
X1921668Y1948334D02*
X2055000D01*
X1905000Y1965000D02*
X1921668Y1948334D01*
X1905000Y1965000D02*
X1921668Y1981666D01*
X2055000D01*
Y1215000D02*
X2105000D01*
X2055000D02*
Y2015000D01*
X2105000D01*
X2995000Y2525000D02*
Y2825000D01*
X2895000D02*
X2995000D01*
X2895000Y2525000D02*
Y2825000D01*
Y2525000D02*
X2995000D01*
D22*
X5043190Y2792166D02*
X5346338D01*
X5043190D02*
X5346338D01*
Y2437834D02*
Y2792166D01*
Y2437834D02*
Y2792166D01*
X4783346Y2437834D02*
X5346338D01*
X4783346D02*
X5346338D01*
X4783346D02*
Y2477204D01*
Y2437834D02*
Y2477204D01*
D23*
X2788355Y1272387D02*
X2754936D01*
D24*
X3338747Y1272380D02*
X3305320D01*
X3322033Y1255667D02*
Y1289094D01*
D25*
X2754000Y1636981D02*
Y1577000D01*
X2783990D01*
X2793987Y1586997D01*
Y1596994D01*
X2783990Y1606990D01*
X2754000D01*
X2783990D01*
X2793987Y1616987D01*
Y1626984D01*
X2783990Y1636981D01*
X2754000D01*
X2813981D02*
Y1586997D01*
X2823977Y1577000D01*
X2843971D01*
X2853968Y1586997D01*
Y1636981D01*
X2873961D02*
X2913948D01*
Y1626984D01*
X2873961Y1586997D01*
Y1577000D01*
X2913948D01*
X2933942Y1636981D02*
X2973929D01*
Y1626984D01*
X2933942Y1586997D01*
Y1577000D01*
X2973929D01*
X3033910Y1636981D02*
X2993922D01*
Y1577000D01*
X3033910D01*
X2993922Y1606990D02*
X3013916D01*
X3053903Y1577000D02*
Y1636981D01*
X3083893D01*
X3093890Y1626984D01*
Y1606990D01*
X3083893Y1596994D01*
X3053903D01*
X3073896D02*
X3093890Y1577000D01*
X2901000Y2879000D02*
Y2938981D01*
X2930990D01*
X2940987Y2928984D01*
Y2908990D01*
X2930990Y2898994D01*
X2901000D01*
X2920994D02*
X2940987Y2879000D01*
X2990971D02*
X2970977D01*
X2960981Y2888997D01*
Y2908990D01*
X2970977Y2918987D01*
X2990971D01*
X3000968Y2908990D01*
Y2898994D01*
X2960981D01*
X3020961Y2879000D02*
X3040955D01*
X3030958D01*
Y2938981D01*
X3020961D01*
X3080942Y2918987D02*
X3100935D01*
X3110932Y2908990D01*
Y2879000D01*
X3080942D01*
X3070945Y2888997D01*
X3080942Y2898994D01*
X3110932D01*
X3130926Y2918987D02*
Y2888997D01*
X3140922Y2879000D01*
X3170913D01*
Y2869003D01*
X3160916Y2859006D01*
X3150919D01*
X3170913Y2879000D02*
Y2918987D01*
X4372490Y2286725D02*
X4352497D01*
X4342500Y2276728D01*
Y2236741D01*
X4352497Y2226744D01*
X4372490D01*
X4382487Y2236741D01*
Y2276728D01*
X4372490Y2286725D01*
X4402481D02*
Y2226744D01*
X4442468D01*
X4502448Y2286725D02*
X4462461D01*
Y2226744D01*
X4502448D01*
X4462461Y2256734D02*
X4482455D01*
X4522442Y2286725D02*
Y2226744D01*
X4552432D01*
X4562429Y2236741D01*
Y2276728D01*
X4552432Y2286725D01*
X4522442D01*
X1911000Y2128981D02*
Y2069000D01*
Y2088994D01*
X1950987Y2128981D01*
X1920997Y2098990D01*
X1950987Y2069000D01*
X2000971D02*
X1980977D01*
X1970981Y2078997D01*
Y2098990D01*
X1980977Y2108987D01*
X2000971D01*
X2010968Y2098990D01*
Y2088994D01*
X1970981D01*
X2030961Y2108987D02*
Y2078997D01*
X2040958Y2069000D01*
X2070948D01*
Y2059003D01*
X2060952Y2049006D01*
X2050955D01*
X2070948Y2069000D02*
Y2108987D01*
X2090942Y2069000D02*
Y2128981D01*
X2120932D01*
X2130929Y2118984D01*
Y2098990D01*
X2120932Y2088994D01*
X2090942D01*
X2160919Y2108987D02*
X2180913D01*
X2190910Y2098990D01*
Y2069000D01*
X2160919D01*
X2150922Y2078997D01*
X2160919Y2088994D01*
X2190910D01*
X2250890Y2128981D02*
Y2069000D01*
X2220900D01*
X2210903Y2078997D01*
Y2098990D01*
X2220900Y2108987D01*
X2250890D01*
X3463000Y2961000D02*
Y3020981D01*
X3502987Y2961000D01*
Y3020981D01*
X3522981Y2961000D02*
Y3000987D01*
X3542974Y3020981D01*
X3562968Y3000987D01*
Y2961000D01*
Y2990990D01*
X3522981D01*
X3582961Y2961000D02*
Y3020981D01*
X3622948Y2961000D01*
Y3020981D01*
X3672932D02*
X3652939D01*
X3642942Y3010984D01*
Y2970997D01*
X3652939Y2961000D01*
X3672932D01*
X3682929Y2970997D01*
Y3010984D01*
X3672932Y3020981D01*
X4535142Y2983973D02*
X4545139Y2973976D01*
X4565132D01*
X4575129Y2983973D01*
Y3023960D01*
X4565132Y3033957D01*
X4545139D01*
X4535142Y3023960D01*
Y3013963D01*
X4545139Y3003967D01*
X4575129D01*
X4595122Y3033957D02*
Y2993970D01*
X4615116Y2973976D01*
X4635109Y2993970D01*
Y3033957D01*
X4655103Y3003967D02*
X4695090D01*
X4715083Y2973976D02*
X4735077D01*
X4725080D01*
Y3033957D01*
X4715083Y3023960D01*
X4805054Y2973976D02*
X4765067D01*
X4805054Y3013963D01*
Y3023960D01*
X4795058Y3033957D01*
X4775064D01*
X4765067Y3023960D01*
X4825048Y3033957D02*
Y2993970D01*
X4845041Y2973976D01*
X4865035Y2993970D01*
Y3033957D01*
%TF.MD5,c8fcbc817ab165e2816814a05df96f00*%
M02*
