%TF.GenerationSoftware,Altium Limited,DefaultClient, ()*%
G04 Layer_Physical_Order=2*
G04 Layer_Color=16711680*
G04 Board_Origin=0|0*
%FSLAX26Y26*%
%MOIN*%
%TF.SameCoordinates,9EDE7A22-6934-4161-8DBF-1DF2AFD9FED2*%
%TF.FilePolarity,Positive*%
%TF.FileFunction,Copper,L2,Bot,Signal*%
%TF.Part,Single*%
G01*
G75*
%TA.AperFunction,Conductor*%
%ADD10C,0.029528*%
%TA.AperFunction,ComponentPad*%
%ADD11C,0.051496*%
%ADD12R,0.059370X0.059370*%
%ADD13C,0.059370*%
%ADD14C,0.118110*%
%ADD15C,0.059055*%
%ADD16R,0.059055X0.059055*%
%ADD17R,0.070866X0.070866*%
%ADD18C,0.070866*%
%ADD19C,0.177165*%
D10*
X2945000Y2675000D02*
X3358819D01*
X2840000Y2575000D02*
X2945000D01*
X2775000Y2640000D02*
X2840000Y2575000D01*
X2775000Y2640000D02*
Y2915000D01*
X2875000Y3015000D01*
X4921142Y2803976D02*
X5015098Y2710020D01*
X4852942Y2775727D02*
X4934273D01*
X4145269Y2470269D02*
X4224731D01*
X4145000Y2470000D02*
X4145269Y2470269D01*
X4224731D02*
X4550000Y2145000D01*
Y2075000D02*
Y2145000D01*
Y2075000D02*
X4585000Y2040000D01*
X4735000D01*
X4805000Y2110000D01*
X4955000Y2260000D01*
X5190000D01*
X5255000Y2325000D01*
Y2780000D01*
X5020000Y3015000D02*
X5255000Y2780000D01*
X2875000Y3015000D02*
X5020000D01*
X3385000Y2530000D02*
Y2648819D01*
Y2530000D02*
X3445000Y2470000D01*
X3545000D01*
X3358819Y2675000D02*
X3385000Y2648819D01*
X3670000Y2470000D02*
X3765000D01*
X3545000D02*
X3670000D01*
X2917047Y1300000D02*
X3027047Y1190000D01*
X3610000D01*
X3745000Y1325000D01*
Y2395000D01*
X3670000Y2470000D02*
X3745000Y2395000D01*
X2155000Y1965000D02*
X2560000Y2370000D01*
X3545000D01*
X2155000Y1865000D02*
X2560000Y2270000D01*
X3545000D01*
X3535000Y2170000D02*
X3540000Y2175000D01*
X2155000Y1765000D02*
X2560000Y2170000D01*
X3535000D01*
X3540000Y2175000D02*
X3545000Y2170000D01*
X2155000Y1665000D02*
X2560000Y2070000D01*
X3545000D01*
X2155000Y1565000D02*
X2560000Y1970000D01*
X3545000D01*
X2155000Y1465000D02*
X2560000Y1870000D01*
X3545000D01*
X2155000Y1365000D02*
X2560000Y1770000D01*
X3545000D01*
X2560000Y1670000D02*
X3545000D01*
X2155000Y1265000D02*
X2560000Y1670000D01*
X3537090Y1962090D02*
X3545000Y1970000D01*
X3482090Y1962090D02*
X3537090D01*
X3437953Y1570000D02*
X3545000D01*
X3182953Y1315000D02*
X3437953Y1570000D01*
X4355000Y1975000D02*
X4870000D01*
X4260000Y2070000D02*
X4355000Y1975000D01*
X4145000Y2070000D02*
X4260000D01*
X4870000Y1975000D02*
X5005000Y2110000D01*
X3765000Y2470000D02*
X3965000Y2670000D01*
X4145000D01*
X4921142Y2788858D02*
X4934273Y2775727D01*
X4145000Y2670000D02*
X4490000D01*
X4590000Y2770000D01*
X4847216D01*
X4852942Y2775727D01*
X4934273D02*
X4940000Y2770000D01*
X4921142Y2788858D02*
Y2803976D01*
X5015098Y2694852D02*
Y2710020D01*
Y2694852D02*
X5055000Y2654950D01*
Y2615000D02*
Y2654950D01*
Y2460000D02*
Y2615000D01*
X4705000Y2110000D02*
X5055000Y2460000D01*
X3537090Y2362090D02*
X3545000Y2370000D01*
X3482090Y2362090D02*
X3537090D01*
Y2262090D02*
X3545000Y2270000D01*
X3482090Y2262090D02*
X3537090D01*
Y2162090D02*
X3545000Y2170000D01*
X3482090Y2162090D02*
X3537090D01*
Y2062090D02*
X3545000Y2070000D01*
X3482090Y2062090D02*
X3537090D01*
Y1862090D02*
X3545000Y1870000D01*
X3482090Y1862090D02*
X3537090D01*
X3482090Y1762090D02*
X3537090D01*
X3545000Y1770000D01*
D11*
X2917047Y1300000D02*
D03*
X3172953D02*
D03*
D12*
X4705000Y2110000D02*
D03*
D13*
X4805000D02*
D03*
X4905000D02*
D03*
X5005000D02*
D03*
D14*
X4421930Y2090316D02*
D03*
X5288070D02*
D03*
Y1224174D02*
D03*
X4421930D02*
D03*
D15*
X2155000Y1265000D02*
D03*
Y1365000D02*
D03*
Y1465000D02*
D03*
Y1565000D02*
D03*
Y1665000D02*
D03*
Y1765000D02*
D03*
Y1865000D02*
D03*
X2945000Y2675000D02*
D03*
Y2775000D02*
D03*
D16*
X2155000Y1965000D02*
D03*
X2945000Y2575000D02*
D03*
D17*
X3545000Y2770000D02*
D03*
D18*
Y2670000D02*
D03*
Y2570000D02*
D03*
Y2470000D02*
D03*
Y2370000D02*
D03*
Y2270000D02*
D03*
Y2170000D02*
D03*
Y2070000D02*
D03*
Y1970000D02*
D03*
Y1870000D02*
D03*
Y1770000D02*
D03*
Y1670000D02*
D03*
Y1570000D02*
D03*
Y1470000D02*
D03*
Y1370000D02*
D03*
X4145000D02*
D03*
Y1470000D02*
D03*
Y1570000D02*
D03*
Y1670000D02*
D03*
Y1770000D02*
D03*
Y1870000D02*
D03*
Y1970000D02*
D03*
Y2070000D02*
D03*
Y2170000D02*
D03*
Y2270000D02*
D03*
Y2370000D02*
D03*
Y2470000D02*
D03*
Y2570000D02*
D03*
Y2670000D02*
D03*
Y2770000D02*
D03*
D19*
X4921142Y2803976D02*
D03*
X5055000Y2615000D02*
D03*
X4806968D02*
D03*
%TF.MD5,cc466482dadcfc8c3646c22dbd2fc7f2*%
M02*
