%TF.GenerationSoftware,Altium Limited,DefaultClient, ()*%
G04 Layer_Physical_Order=1*
G04 Layer_Color=255*
G04 Board_Origin=0|0*
%FSLAX26Y26*%
%MOIN*%
%TF.SameCoordinates,9EDE7A22-6934-4161-8DBF-1DF2AFD9FED2*%
%TF.FilePolarity,Positive*%
%TF.FileFunction,Copper,L1,Top,Signal*%
%TF.Part,Single*%
G01*
G75*
%TA.AperFunction,Conductor*%
%ADD10C,0.029528*%
%TA.AperFunction,ComponentPad*%
%ADD11C,0.051496*%
%ADD12R,0.059370X0.059370*%
%ADD13C,0.059370*%
%ADD14C,0.118110*%
%ADD15C,0.059055*%
%ADD16R,0.059055X0.059055*%
%ADD17R,0.070866X0.070866*%
%ADD18C,0.070866*%
%ADD19C,0.177165*%
D10*
X3365000Y2775000D02*
X3425000Y2715000D01*
X2945000Y2775000D02*
X3365000D01*
X3425000Y1525000D02*
X3472090Y1477910D01*
X3537090D01*
X3545000Y1470000D01*
X3425000Y1525000D02*
Y2715000D01*
X4355000Y1980000D02*
X4775000D01*
X4165000Y2170000D02*
X4355000Y1980000D01*
X4145000Y2170000D02*
X4165000D01*
X4651968Y2770000D02*
X4806968Y2615000D01*
X4145000Y2770000D02*
X4651968D01*
X4775000Y1980000D02*
X4905000Y2110000D01*
D11*
X2917047Y1300000D02*
D03*
X3172953D02*
D03*
D12*
X4705000Y2110000D02*
D03*
D13*
X4805000D02*
D03*
X4905000D02*
D03*
X5005000D02*
D03*
D14*
X4421930Y2090316D02*
D03*
X5288070D02*
D03*
Y1224174D02*
D03*
X4421930D02*
D03*
D15*
X2155000Y1265000D02*
D03*
Y1365000D02*
D03*
Y1465000D02*
D03*
Y1565000D02*
D03*
Y1665000D02*
D03*
Y1765000D02*
D03*
Y1865000D02*
D03*
X2945000Y2675000D02*
D03*
Y2775000D02*
D03*
D16*
X2155000Y1965000D02*
D03*
X2945000Y2575000D02*
D03*
D17*
X3545000Y2770000D02*
D03*
D18*
Y2670000D02*
D03*
Y2570000D02*
D03*
Y2470000D02*
D03*
Y2370000D02*
D03*
Y2270000D02*
D03*
Y2170000D02*
D03*
Y2070000D02*
D03*
Y1970000D02*
D03*
Y1870000D02*
D03*
Y1770000D02*
D03*
Y1670000D02*
D03*
Y1570000D02*
D03*
Y1470000D02*
D03*
Y1370000D02*
D03*
X4145000D02*
D03*
Y1470000D02*
D03*
Y1570000D02*
D03*
Y1670000D02*
D03*
Y1770000D02*
D03*
Y1870000D02*
D03*
Y1970000D02*
D03*
Y2070000D02*
D03*
Y2170000D02*
D03*
Y2270000D02*
D03*
Y2370000D02*
D03*
Y2470000D02*
D03*
Y2570000D02*
D03*
Y2670000D02*
D03*
Y2770000D02*
D03*
D19*
X4921142Y2803976D02*
D03*
X5055000Y2615000D02*
D03*
X4806968D02*
D03*
%TF.MD5,4bd1357c1cdbf45beca737dbfb5606a7*%
M02*
